@startuml
skinparam classAttributeIconSize 0

class Administrator
class ClinicalChemistryTechnologist
class Company {
-designation
}
class Employee {
-employeeID
-organizationID
-name
-address
-phoneNumber
-email
-SOCcode
}
class LaboratoryCoordinator
class MedicalLabTechnician
class Receptionist
class Role
class SpecialistDoctor {
-doctorIndexNumber
}

Company "1"--"1..*" Employee : has >
Company "1"--"1..*" Role : has >
Role .. Administrator
Role .. ClinicalChemistryTechnologist
Role .. MedicalLabTechnician
Role .. LaboratoryCoordinator
Role .. Receptionist
Role .. SpecialistDoctor
Administrator "1"--"*" Employee : registers >
Employee "1"-right-"1" Role : has >
@enduml