@startuml
class Administrator
class RegisterNewLabUI{
+setData()
+setTestType()
+confirmation()
}
class RegisterNewLabController {
+registerNewLab()
+setData(name, address, phonenumber, TIN, labID)
+setTest(tt)
}
class Company {
-designation
+getTestTypeList()
+getLab()
}
class ClinicalAnalysisLaboratory {
-String name
-String address
-long phonenumber
-long TIN
-String laboratoryID
-TestType tt
+validateName(name)
+validateAddress(address)
+validatePhoneNumber(phonenumber)
+validateTIN(TIN)
+validateLabID(laboratoryID)
}
class TestType

Administrator ..> RegisterNewLabUI
RegisterNewLabUI .> RegisterNewLabController
RegisterNewLabController <... Company
RegisterNewLabController .> ClinicalAnalysisLaboratory
Company"1"--"1..*"ClinicalAnalysisLaboratory : > owns
Administrator"1 "-"1..* "ClinicalAnalysisLaboratory : > registers
ClinicalAnalysisLaboratory"1   ‎ "--"1..*"TestType : > performs
Company" 1 "-" * "TestType : > conducts
Company"1   ‎"-"1..*"Administrator : > employs
@enduml